<?xml version="1.0" encoding="UTF-8" standalone="no"?>
<!-- Created with Inkscape (http://www.inkscape.org/) -->

<svg
   version="1.1"
   id="svg2"
   width="268.98883"
   height="298.42426"
   viewBox="0 0 268.98883 298.42426"
   sodipodi:docname="jcup.svg"
   inkscape:version="1.2 (dc2aedaf03, 2022-05-15)"
   xmlns:inkscape="http://www.inkscape.org/namespaces/inkscape"
   xmlns:sodipodi="http://sodipodi.sourceforge.net/DTD/sodipodi-0.dtd"
   xmlns="http://www.w3.org/2000/svg"
   xmlns:svg="http://www.w3.org/2000/svg">
  <defs
     id="defs6" />
  <sodipodi:namedview
     id="namedview4"
     pagecolor="#505050"
     bordercolor="#eeeeee"
     borderopacity="1"
     inkscape:showpageshadow="0"
     inkscape:pageopacity="0"
     inkscape:pagecheckerboard="0"
     inkscape:deskcolor="#505050"
     showgrid="false"
     inkscape:zoom="3.4414093"
     inkscape:cx="111.58219"
     inkscape:cy="149.06684"
     inkscape:window-width="2560"
     inkscape:window-height="1377"
     inkscape:window-x="-8"
     inkscape:window-y="32"
     inkscape:window-maximized="1"
     inkscape:current-layer="g8" />
  <g
     inkscape:groupmode="layer"
     inkscape:label="Image"
     id="g8"
     transform="translate(-12.560219,-0.06787804)">
    <path
       style="fill:#f7f7f7;stroke:#000000;stroke-width:1.58543;stroke-dasharray:none;stroke-opacity:1"
       d="m 132.37686,295.62888 c -6.67828,-0.57347 -12.30034,-1.2474 -17.06148,-2.04524 l -5.63498,-0.94427 -5.47846,-1.37538 c -7.16092,-1.79775 -11.535439,-3.19116 -17.844118,-5.68386 l -5.165401,-2.04098 -4.852347,-2.4596 c -8.382411,-4.24894 -14.36789,-8.10417 -21.599913,-13.91237 l -3.912322,-3.14208 -4.241315,-4.22943 C 32.986145,246.23345 23.068288,229.80289 16.6893,210.26603 l -1.186076,-3.63259 0.198819,-0.51849 0.198819,-0.51851 4.00127,0.005 4.001268,0.005 0.390868,0.24838 0.390869,0.24838 0.894593,2.64476 c 16.079115,47.53494 54.353948,74.77977 109.61462,78.02525 l 6.10457,0.35853 6.41762,-0.19338 c 17.69145,-0.53308 33.10398,-3.35217 47.50106,-8.68841 l 4.30948,-1.5973 5.36627,-2.59453 c 8.28758,-4.00695 13.54773,-7.23745 20.46075,-12.56581 l 3.60013,-2.77489 5.64429,-5.64854 5.64429,-5.64854 2.78191,-3.60283 c 18.09717,-23.43753 26.77129,-52.97284 26.77464,-91.16749 0.004,-43.6745 -5.81344,-83.875036 -16.51399,-114.120579 l -1.76935,-5.001146 -0.41424,-0.159072 -0.41421,-0.15907 -2.41419,1.102706 c -12.43012,5.677581 -42.54869,9.842563 -81.14745,11.22158 l -10.17428,0.363494 -18.47022,-0.17969 -18.47023,-0.179691 -6.10457,-0.331361 C 75.798616,43.139024 50.992202,39.134709 39.613209,33.214903 L 37.165835,31.941684 35.809232,30.584055 34.45262,29.226426 33.773213,27.821894 33.093796,26.417363 v -1.746107 -1.746109 l 0.679417,-1.404529 0.679407,-1.404532 1.417452,-1.418518 1.417454,-1.418517 3.482215,-1.694713 3.482227,-1.694713 3.600129,-1.078183 C 63.225811,8.2072442 89.464285,5.0276439 121.85731,3.8434273 l 8.73332,-0.319271 14.43274,0.00294 14.43272,0.00294 8.45248,0.302613 c 32.53879,1.1649436 58.88228,4.3462445 74.35048,8.9787397 l 3.60013,1.078184 3.48223,1.694713 3.48221,1.694711 1.37041,1.371438 c 1.70307,1.70435 1.9368,2.1693 4.68054,9.310316 10.72644,27.917425 16.40556,56.444359 18.92914,95.083629 l 0.49107,7.51897 0.17956,15.82117 0.17953,15.82116 -0.36457,5.48257 c -2.6438,39.75689 -15.23959,70.084 -38.58041,92.89059 l -5.13005,5.01266 -3.59496,2.78508 c -14.14295,10.95692 -29.37232,18.23796 -47.85184,22.87755 l -5.53306,1.38919 -5.78438,0.96 c -3.1814,0.52801 -7.82704,1.18824 -10.32365,1.46718 l -4.5393,0.50719 -11.58301,0.086 c -6.37067,0.0473 -12.21696,0.0316 -12.99178,-0.0349 z M 162.58665,36.733899 c 39.54893,-1.119949 72.31851,-5.453507 83.18318,-11.000427 l 1.18504,-0.605016 v -0.4572 -0.457202 l -1.18504,-0.605017 C 234.44887,17.829164 201.63892,13.63434 159.35186,12.560309 L 144.84713,12.191911 130.3943,12.561204 C 88.56795,13.629932 55.595993,17.863008 44.341315,23.609037 l -1.185039,0.605017 v 0.483216 0.483217 l 2.007013,0.910707 c 16.217623,7.358959 67.915981,12.044657 117.423361,10.642705 z"
       id="path866"
       inkscape:export-filename="jcup.svg"
       inkscape:export-xdpi="548.571"
       inkscape:export-ydpi="548.571" />
  </g>
</svg>
